<?xml version="1.0" encoding="UTF-8"?>
<svg width="1200pt" height="1200pt" version="1.1" viewBox="0 0 1200 1200" xmlns="http://www.w3.org/2000/svg">
 <path id="icn_form" d="m600 1200c-331.37 0-600-268.63-600-600s268.63-600 600-600 600 268.63 600 600-268.63 600-600 600zm-90-678v396c0 49.727 40.293 90 90 90 49.605 0 90-40.293 90-90v-396c0-49.727-40.293-90-90-90-49.605 0-90 40.293-90 90zm90-150c49.707 0 90-40.293 90-90s-40.293-90-90-90-90 40.293-90 90 40.293 90 90 90z" fill="#aaa" fill-rule="evenodd"/>
</svg>
