<?xml version="1.0" encoding="UTF-8"?>
<svg width="1200pt" height="1200pt" version="1.1" viewBox="0 0 1200 1200" xmlns="http://www.w3.org/2000/svg">
 <g fill="#aaa">
  <path d="m866.88 819.24-499.8-499.68c-6.0664-6.0664-14.906-8.4336-23.191-6.2148-8.2891 2.2227-14.762 8.6953-16.98 16.98-2.2227 8.2891 0.14844 17.129 6.2148 23.195l129.24 129.12h-75c-6.625 0-12 5.3711-12 12v217.2c0 3.1836 1.2656 6.2344 3.5156 8.4844s5.3008 3.5156 8.4844 3.5156h120c1.8203 0.84375 3.5156 1.9336 5.0391 3.2383l178.68 155.28c3.9375 3.457 9.0273 5.3164 14.266 5.2148 5.2383-0.10156 10.246-2.1602 14.047-5.7656 3.8008-3.6055 6.1133-8.5039 6.4883-13.73v-121.92l107.04 107.04h0.003906c6.0664 6.0664 14.906 8.4375 23.191 6.2148 8.2891-2.2188 14.762-8.6914 16.98-16.98 2.2227-8.2852-0.14844-17.129-6.2148-23.195z"/>
  <path d="m725.88 339.6c0.10938-1.3203 0.10938-2.6445 0-3.9609-1.6562-7.1797-6.9727-12.949-13.992-15.191-7.0156-2.2422-14.695-0.61719-20.207 4.2695l-139.68 120 173.88 173.64z"/>
 </g>
</svg>
