<?xml version="1.0" encoding="UTF-8"?>
<svg width="1200pt" height="1200pt" version="1.1" viewBox="0 0 1200 1200" xmlns="http://www.w3.org/2000/svg">
 <path d="m669.36 332.16c-1.6562-7.1758-6.9766-12.949-13.992-15.191-7.0195-2.2383-14.695-0.61719-20.207 4.2695l-179.16 154.68c-1.5234 1.3047-3.2188 2.3945-5.0391 3.2383h-120c-6.6289 0-12 5.3711-12 12v217.2c0 3.1836 1.2617 6.2344 3.5156 8.4844 2.25 2.2539 5.3008 3.5156 8.4844 3.5156h120c1.8203 0.84375 3.5156 1.9336 5.0391 3.2422l178.92 155.16c3.9766 3.4805 9.125 5.332 14.41 5.1836 5.2852-0.14844 10.32-2.2812 14.098-5.9805 3.7812-3.6953 6.0273-8.6836 6.2891-13.965v-528c-0.015625-1.2891-0.13672-2.5703-0.35938-3.8398z" fill="#aaa"/>
 <path transform="scale(12)" d="m63.19 61s4.2399-4.8499 4.2399-10.85-4.43-10.83-4.2399-10.83" fill="none" stroke="#aaa" stroke-linecap="round" stroke-linejoin="round" stroke-width="4"/>
 <path transform="scale(12)" d="m70.44 65.68s6.0599-6.9401 6.0599-15.5-6.2799-15.51-6.0599-15.51" fill="none" stroke="#aaa" stroke-linecap="round" stroke-linejoin="round" stroke-width="4"/>
</svg>
